<svg xmlns="http://www.w3.org/2000/svg" xmlns:xlink="http://www.w3.org/1999/xlink" id="Layer_1" data-name="Layer 1" viewBox="0 0 220 78.63"><defs><style>      .cls-1 {        fill: url(#linear-gradient);      }      .cls-1, .cls-2, .cls-3 {        stroke-width: 0px;      }      .cls-2 {        fill: url(#linear-gradient-2);      }      .cls-3 {        fill: #6440cb;      }    </style><linearGradient id="linear-gradient" x1="-505.45" y1="480.87" x2="-550.86" y2="482.16" gradientTransform="translate(564 -422)" gradientUnits="userSpaceOnUse"><stop offset="0" stop-color="#94217f"></stop><stop offset=".51" stop-color="#d7267b"></stop><stop offset=".99" stop-color="#e67920"></stop></linearGradient><linearGradient id="linear-gradient-2" x1="-476.88" y1="512.57" x2="-540.38" y2="448.28" gradientTransform="translate(564 -422)" gradientUnits="userSpaceOnUse"><stop offset="0" stop-color="#6639c2"></stop><stop offset=".53" stop-color="#6440d1"></stop><stop offset="1" stop-color="#2f267d"></stop></linearGradient></defs><path class="cls-3" d="M125.68,51.57c.1.17.17.34.2.48.04.14.06.32.06.53,0,.25-.06.5-.15.75-.1.21-.26.41-.46.58-.17.17-.4.31-.67.37-.24.11-.5.16-.78.16-.45,0-.83-.11-1.14-.32-.31-.21-.55-.53-.72-.96-3.1-7.16-7.7-17.91-13.83-32.22-3.06,7.16-7.66,17.91-13.77,32.22-.17.42-.44.75-.78.96-.31.21-.67.32-1.08.32-.31,0-.58-.06-.83-.16-.24-.11-.46-.25-.68-.42-.24-.21-.42-.42-.52-.63-.1-.25-.16-.5-.16-.75,0-.17.02-.34.06-.48.04-.11.09-.25.16-.42,3.37-7.73,8.44-19.33,15.22-34.83.1-.25.24-.46.42-.63.17-.17.36-.34.57-.48s.42-.23.62-.27c.24-.07.48-.11.72-.11.28,0,.52.04.72.11.24.07.48.17.72.32.2.14.4.31.57.48s.29.37.36.58c2.55,5.81,5.07,11.62,7.58,17.45,2.55,5.77,5.07,11.58,7.58,17.39h0s0-.01,0-.01Z"></path><path class="cls-3" d="M160.25,15.57c.34-.21.7-.32,1.08-.32.58,0,1.1.2,1.55.59.42.35.62.82.62,1.38,0,.28-.07.57-.2.86-3.37,7.74-8.43,19.35-15.17,34.8-.2.5-.52.87-.93,1.12-.42.25-.87.37-1.39.37-.48,0-.93-.13-1.33-.37-.45-.25-.78-.62-.98-1.12-3.34-7.71-8.38-19.31-15.12-34.8-.1-.28-.15-.55-.15-.8,0-.6.24-1.08.72-1.44.44-.39.95-.59,1.5-.59.86,0,1.48.41,1.86,1.23,3.03,7.06,7.57,17.67,13.62,31.81,2.27-5.29,6.79-15.9,13.57-31.81.2-.39.46-.69.77-.9h0-.01Z"></path><path class="cls-3" d="M170.8,34.86c0-2.79.52-5.4,1.59-7.85,1.06-2.45,2.49-4.59,4.31-6.42,1.82-1.83,3.95-3.28,6.39-4.33,2.45-1.06,5.06-1.59,7.85-1.59s5.35.52,7.8,1.59,4.58,2.5,6.39,4.33c1.82,1.84,3.25,3.98,4.31,6.42,1.06,2.45,1.59,5.07,1.59,7.85s-.52,5.39-1.59,7.82-2.49,4.56-4.31,6.36c-1.82,1.82-3.95,3.25-6.39,4.31-2.45,1.06-5.07,1.59-7.85,1.59s-5.39-.52-7.83-1.59c-2.43-1.06-4.56-2.49-6.36-4.31-1.82-1.82-3.25-3.94-4.31-6.36-1.06-2.43-1.59-5.04-1.59-7.82h0ZM174.39,34.81c0,2.29.44,4.43,1.31,6.43.87,2,2.05,3.74,3.53,5.23,1.49,1.49,3.24,2.67,5.25,3.53s4.17,1.31,6.46,1.31,4.39-.44,6.4-1.31c2.01-.87,3.76-2.05,5.25-3.53s2.67-3.23,3.53-5.23c.87-2,1.31-4.14,1.31-6.43s-.44-4.39-1.31-6.4c-.87-2.01-2.05-3.76-3.53-5.25-1.49-1.49-3.24-2.67-5.25-3.53s-4.15-1.31-6.4-1.31-4.44.44-6.46,1.31c-2.02.87-3.76,2.05-5.25,3.53s-2.67,3.24-3.53,5.25c-.87,2.02-1.31,4.15-1.31,6.4Z"></path><path class="cls-3" d="M103.24,69.96c.04.07.07.12.07.17,0,.04.02.11.02.2,0,.09-.02.17-.06.27-.04.07-.09.15-.17.21-.07.07-.15.11-.25.14-.09.04-.18.06-.28.06-.17,0-.31-.04-.42-.12s-.2-.2-.27-.34c-1.15-2.58-2.86-6.45-5.13-11.61-1.14,2.58-2.84,6.45-5.11,11.61-.07.16-.15.27-.28.34-.12.07-.25.12-.41.12-.11,0-.22-.02-.31-.06-.09-.04-.17-.09-.25-.16-.09-.07-.15-.16-.2-.23-.04-.09-.06-.17-.06-.27,0-.07,0-.12.02-.17,0-.04.03-.09.06-.16,1.25-2.79,3.14-6.97,5.64-12.55.04-.09.09-.17.16-.23s.14-.12.21-.17c.07-.04.16-.08.23-.09.09-.03.17-.04.27-.04.1,0,.2,0,.27.04.09.03.17.07.27.11.07.06.15.11.21.17s.11.14.14.21c.94,2.1,1.88,4.19,2.81,6.28.94,2.08,1.88,4.17,2.81,6.26h0Z"></path><path class="cls-3" d="M115.1,61.27c.16.16.23.34.23.57v8.29c0,.23-.07.42-.21.55s-.33.21-.57.21-.44-.07-.57-.21c-.13-.13-.2-.31-.2-.53v-.98c-.31.57-.73,1.01-1.26,1.32-.55.3-1.16.44-1.84.44-1.14,0-1.99-.31-2.56-.94-.57-.63-.86-1.58-.86-2.81v-5.34c0-.23.07-.42.21-.57.14-.14.34-.21.59-.21s.44.07.57.21c.14.16.21.34.21.57v5.3c0,.84.17,1.46.5,1.86.34.41.89.61,1.61.61.84,0,1.52-.28,2.03-.82.51-.53.77-1.25.77-2.14v-4.81c0-.23.07-.42.21-.57.14-.14.34-.21.59-.21s.42.07.55.21h0Z"></path><path class="cls-3" d="M130.44,70.33c-.69-.39-1.22-.97-1.59-1.73s-.55-1.63-.55-2.62.18-1.87.55-2.62c.37-.74.9-1.32,1.59-1.73.69-.41,1.49-.61,2.39-.61s1.69.2,2.4.61c.69.41,1.22.99,1.59,1.74.37.74.55,1.6.55,2.6s-.18,1.87-.55,2.62c-.37.76-.9,1.33-1.59,1.73-.7.41-1.5.61-2.4.61s-1.71-.2-2.39-.61h0ZM134.98,68.7c.51-.63.77-1.53.77-2.72s-.26-2.06-.77-2.7c-.51-.63-1.22-.94-2.15-.94s-1.65.31-2.17.94c-.51.63-.77,1.54-.77,2.7s.25,2.08.75,2.7c.51.63,1.24.96,2.19.96s1.65-.31,2.15-.94Z"></path><path class="cls-3" d="M155.52,64.81v5.3c0,.26-.07.44-.23.57-.14.14-.32.21-.55.21s-.44-.07-.57-.21c-.16-.13-.23-.32-.23-.57v-5.27c0-.89-.16-1.52-.48-1.92-.31-.39-.8-.57-1.48-.57-.79,0-1.42.27-1.87.8-.46.53-.69,1.25-.69,2.17v4.79c0,.26-.07.44-.23.57-.14.14-.33.21-.57.21s-.42-.07-.55-.21c-.15-.13-.23-.32-.23-.57v-5.27c0-.89-.15-1.52-.46-1.92-.32-.39-.82-.57-1.49-.57-.79,0-1.42.27-1.87.8-.46.53-.69,1.25-.69,2.17v4.79c0,.26-.07.44-.23.57-.14.14-.32.21-.55.21s-.44-.07-.57-.21c-.16-.13-.23-.32-.23-.57v-8.27c0-.23.07-.42.23-.57.14-.14.33-.21.57-.21.22,0,.39.07.53.21.16.14.23.32.23.55v.94c.28-.56.68-.99,1.19-1.28.51-.31,1.1-.46,1.76-.46,1.49,0,2.47.63,2.93,1.88.26-.57.68-1.03,1.25-1.36.56-.34,1.21-.52,1.94-.52,2.12,0,3.18,1.27,3.18,3.79h-.02s0,0,0,0Z"></path><path class="cls-3" d="M167.85,64.79v5.32c0,.24-.07.44-.21.57s-.32.21-.55.21-.42-.07-.57-.21c-.14-.14-.21-.33-.21-.57v-.94c-.24.56-.62,1-1.13,1.3s-1.1.46-1.76.46c-.63,0-1.19-.12-1.71-.36-.52-.26-.93-.61-1.23-1.05-.31-.44-.46-.92-.46-1.46,0-.73.19-1.29.55-1.69.37-.39.97-.67,1.8-.84.84-.2,2.01-.28,3.5-.28h.42v-.66c0-.77-.15-1.36-.48-1.73-.32-.36-.84-.53-1.55-.53-.9,0-1.8.24-2.72.73-.34.22-.59.32-.75.32s-.28-.06-.39-.17c-.1-.13-.15-.28-.15-.46s.06-.34.15-.48c.11-.14.31-.28.55-.42.44-.26.96-.46,1.55-.61.59-.16,1.17-.23,1.74-.23,2.39,0,3.58,1.25,3.58,3.77h0s0,0,0,0ZM165.54,68.9c.51-.53.77-1.23.77-2.07v-.57h-.34c-1.15,0-2.03.06-2.64.16-.6.1-1.03.27-1.28.5-.26.23-.39.56-.39,1,0,.51.2.94.57,1.28.37.33.84.5,1.4.5.78,0,1.42-.26,1.92-.79h0s0,0,0,0Z"></path><path class="cls-3" d="M181.4,58.72c-.2-.17-.31-.42-.31-.73,0-.28.1-.52.31-.71.2-.17.44-.27.77-.27s.56.09.77.27c.2.2.28.42.28.71,0,.31-.09.55-.28.73-.2.2-.46.28-.77.28s-.57-.09-.77-.28ZM181.57,70.72c-.14-.14-.21-.34-.21-.59v-8.27c0-.24.07-.44.23-.57.14-.14.33-.21.57-.21s.42.07.55.21c.16.14.23.33.23.57v8.27c0,.27-.07.47-.23.59-.14.13-.32.2-.55.2s-.44-.07-.59-.2h0Z"></path><path class="cls-3" d="M189.44,70.33c-.69-.39-1.22-.97-1.59-1.73s-.55-1.63-.55-2.62.18-1.87.55-2.62c.37-.74.9-1.32,1.59-1.73.69-.41,1.49-.61,2.39-.61s1.69.2,2.4.61c.69.41,1.22.99,1.59,1.74.37.74.55,1.6.55,2.6s-.18,1.87-.55,2.62c-.37.76-.9,1.33-1.59,1.73-.7.41-1.5.61-2.4.61s-1.71-.2-2.39-.61h0ZM193.98,68.7c.51-.63.77-1.53.77-2.72s-.26-2.06-.77-2.7c-.51-.63-1.23-.94-2.15-.94s-1.65.31-2.17.94c-.51.63-.77,1.54-.77,2.7s.25,2.08.75,2.7c.51.63,1.24.96,2.19.96s1.65-.31,2.15-.94Z"></path><path class="cls-3" d="M208.94,64.81v5.3c0,.26-.07.44-.21.57-.14.14-.33.21-.57.21-.26,0-.45-.07-.59-.21-.14-.13-.21-.32-.21-.57v-5.21c0-.9-.17-1.54-.52-1.96-.34-.39-.9-.59-1.67-.59-.87,0-1.57.27-2.08.8-.52.53-.79,1.25-.79,2.17v4.79c0,.26-.07.44-.21.57-.14.14-.33.21-.57.21-.26,0-.45-.07-.59-.21-.14-.13-.21-.32-.21-.57v-8.27c0-.23.07-.42.21-.57.14-.14.34-.21.59-.21.23,0,.42.07.55.21.14.16.21.34.21.55v1c.31-.59.74-1.03,1.3-1.34.56-.31,1.21-.46,1.94-.46,2.29,0,3.43,1.27,3.43,3.79h-.01Z"></path><path class="cls-3" d="M124.53,70.92c.19.02.44-.06.57-.16.14-.1.21-.23.23-.41.02-.18-.03-.34-.14-.46-.11-.14-.27-.21-.46-.23-.26-.03-.29-.03-.31-.03-.07,0-.11,0-.15,0h-.12c-.6-.06-1.04-.24-1.34-.55-.29-.32-.44-.84-.44-1.55v-5h2.19c.2,0,.37-.06.5-.17.13-.11.2-.26.2-.44s-.07-.34-.2-.46c-.13-.13-.29-.2-.5-.2h-2.19v-2.21c0-.26-.07-.45-.21-.59-.14-.13-.33-.2-.57-.2s-.44.07-.57.2c-.16.14-.23.34-.23.59v2.21h-1.3c-.23,0-.41.07-.52.2-.13.11-.2.27-.2.46,0,.17.07.32.2.44.11.12.28.17.52.17h1.3v4.93c0,1.11.25,1.94.75,2.49s1.27.86,2.32.94"></path><path class="cls-3" d="M177.01,70.92c.2.02.44-.06.57-.16s.21-.23.23-.41c.02-.18-.03-.34-.14-.46-.11-.14-.26-.21-.46-.23-.26-.03-.3-.03-.31-.03-.07,0-.11,0-.16,0h-.12c-.6-.06-1.04-.24-1.33-.55-.3-.32-.44-.84-.44-1.55v-5h2.19c.2,0,.37-.06.5-.17.13-.11.2-.26.2-.44s-.07-.34-.2-.46c-.13-.13-.3-.2-.5-.2h-2.19v-2.21c0-.26-.07-.45-.21-.59-.14-.13-.33-.2-.57-.2s-.44.07-.57.2c-.15.14-.23.34-.23.59v2.21h-1.3c-.23,0-.41.07-.52.2-.13.11-.2.27-.2.46,0,.17.07.32.2.44.11.12.28.17.52.17h1.3v4.93c0,1.11.25,1.94.75,2.49.5.55,1.27.86,2.32.94"></path><path class="cls-1" d="M10.71,54.15c1.93-1.11,3.83-2.41,5.91-3.34,4.13-1.87,8.46-2.21,12.92-1.33,6.71,1.33,12.25,4.77,17.46,8.94-.84-.56-5.56-2.63-8.95.38-.24.21-9.34,7.25-13.76,10.43-4.28,3.08-10.54,1.38-13.67-2.89-3.67-4.99-.09-11.9.08-12.18h0s0-.01,0-.01Z"></path><path class="cls-2" d="M75.82,55.53l-2.1-3.45c-4.57-8.01-20.92-36.63-20.92-36.63-4.53-7.86-15.92-7.75-20.29.21,0,0-6.39,11.38-8.4,14.9.07-.11.15-.21.24-.31-1.14,1.93-13.17,23.03-13.65,23.91,0,0,0,0,.02-.03,0,0-.02.02-.02.03,1.93-1.11,3.84-2.41,5.91-3.35,4.14-1.87,8.47-2.21,12.93-1.34,5.43,1.07,10.11,3.53,14.46,6.64l13.94,10.8s9.65,8.25,17.01-.57c.78-.92,4.04-5.37.86-10.78v-.02s.01,0,.01,0Z"></path><g><path class="cls-3" d="M206.77,14.18h-.66l-.54-1.44c-.06-.15-.14-.26-.25-.32s-.26-.09-.45-.09h-.95v1.85h-.62v-4.33h1.78c.48,0,.84.11,1.09.32.25.21.38.51.38.91,0,.28-.07.52-.22.72s-.36.34-.64.42c.25.04.44.22.55.53l.53,1.43h0ZM205.01,11.83c.32,0,.55-.06.7-.19.15-.12.23-.31.23-.56s-.08-.43-.23-.55-.39-.18-.71-.18h-1.09v1.47h1.09,0Z"></path><path class="cls-3" d="M204.92,16.38c-2.41,0-4.37-1.96-4.37-4.37s1.96-4.37,4.37-4.37,4.37,1.96,4.37,4.37-1.96,4.37-4.37,4.37ZM204.92,8.24c-2.08,0-3.76,1.69-3.76,3.76s1.69,3.76,3.76,3.76,3.76-1.69,3.76-3.76-1.69-3.76-3.76-3.76Z"></path></g></svg>